<?xml version="1.0" encoding="utf-8"?>
<!-- Generator: Adobe Illustrator 22.1.0, SVG Export Plug-In . SVG Version: 6.00 Build 0)  -->
<svg version="1.1" id="Layer_1" xmlns="http://www.w3.org/2000/svg" xmlns:xlink="http://www.w3.org/1999/xlink" x="0px" y="0px"
	 viewBox="0 0 867.8 288" style="enable-background:new 0 0 867.8 288;" xml:space="preserve">
<style type="text/css">
	.st0{fill:url(#SVGID_1_);}
	.st1{fill:url(#SVGID_2_);}
	.st2{fill:url(#SVGID_3_);}
	.st3{fill:#525252;}
	.st4{fill:url(#SVGID_4_);}
</style>
<linearGradient id="SVGID_1_" gradientUnits="userSpaceOnUse" x1="15.4723" y1="102.3136" x2="852.978" y2="102.3136">
	<stop  offset="0" style="stop-color:#D474A2"/>
	<stop  offset="0.5466" style="stop-color:#ED93A2"/>
	<stop  offset="1" style="stop-color:#FFA9A2"/>
	<stop  offset="1" style="stop-color:#95625E"/>
	<stop  offset="1" style="stop-color:#452E2C"/>
	<stop  offset="1" style="stop-color:#130D0C"/>
	<stop  offset="1" style="stop-color:#000000"/>
</linearGradient>
<path class="st0" d="M528.9,122.8c-1.3,1.8-2.8,3.4-4.6,4.8c-1.8,1.5-3.7,2.8-5.9,4.1c-3.8,2.3-6.9,3.4-9.3,3.4
	c-6.5,0-10.7-1-12.7-3c-0.9-0.9-1.3-2.2-1.3-3.8c0-1.8,0.4-4,1.3-6.7c0.9-2.7,2-5.8,3.3-9.4c1.3-3.6,3-7.8,5-12.4
	c5.3-11.9,8.9-19.8,10.6-23.6c0.9-2.4,0.7-4.3-0.6-5.7c-0.9-0.8-3.1-1.5-6.7-2.1c-3.5-0.8-6-0.9-7.2-0.6c-1,0.4-2,1.1-3,2.1
	c-0.6,0.6-1.4,1.6-2.3,3c-0.8,1.4-2.2,1.5-4.2,0.4c-4.3-2.3-9.1-3.4-14.2-3.2c-7,0.1-13.9,2.1-20.7,5.9
	c-9.1,5.1-16.2,12.5-21.3,22.2c-5.1,9.6-7.6,18.6-7.6,26.8c0,1,0.1,1.9,0.1,2.8c-1.7,1.4-3.6,2.7-5.6,3.9c-3.8,2.3-6.9,3.4-9.3,3.4
	c-6.8,0-11.1-0.9-12.9-2.7c-0.9-0.9-1.3-2.2-1.3-3.8c0-1.4,0.4-3.9,1.3-7.4c2.8-12.5,7.7-29.5,14.8-50.7c1.9-4.3,3.2-7,4-8
	c6.1-8.1,10.5-16.1,13.1-23.9c0.8-2.4,1.1-4.7,1.1-6.8c0-3.4-0.9-6.2-2.6-8.5c-1.7-2.2-3.9-3.4-6.6-3.7c-7.9-0.6-13.9,4.8-18.2,16.1
	c-4.1,10.3-8.4,23.6-13.1,40.1c-5.8,20.5-9.2,35.8-10.3,46c-0.1,0.8-0.1,1.5-0.2,2.2c-1.1,1.3-2.3,2.5-3.6,3.6
	c-1.8,1.5-3.7,2.8-5.9,4.1c-3.8,2.3-6.9,3.4-9.3,3.4c-6.8,0-11.1-0.9-12.9-2.7c-0.9-0.9-1.3-2.2-1.3-3.8c0-1.4,0.4-3.9,1.3-7.4
	c2.8-12.5,7.7-29.5,14.8-50.7c1.9-4.3,3.2-7,4-8c6.1-8.1,10.5-16.1,13.1-23.9c0.8-2.4,1.1-4.7,1.1-6.8c0-3.4-0.9-6.2-2.6-8.5
	c-1.7-2.2-3.9-3.4-6.6-3.7c-7.9-0.6-13.9,4.8-18.2,16.1c-4.1,10.3-8.4,23.6-13.1,40.1c-5.8,20.5-9.2,35.8-10.3,46
	c-0.1,0.8-0.1,1.5-0.2,2.2c-5.3,6.6-11.6,10.2-19,11c-12,1.1-20.8,0.1-26.4-3c-1.5-0.8-2.3-1.4-2.3-1.9c0-0.1,0.3-0.5,1-1.1
	c2.4-1.8,4.8-3.8,7.3-6c2.5-2.2,5-4.7,7.5-7.5c8.1-8.7,12.7-16.2,13.7-22.2c0.4-2.3,0.6-4.4,0.6-6.5c0-9.1-3.7-15.3-11-18.4
	c-1.9-0.9-4.5-1.3-7.8-1.3c-5.8,0-11.5,1.5-16.9,4.6c-6.6,3.5-11.7,8.9-15.4,16.2c-5.1,10-7.6,19.4-7.6,28.1c0,3.7,0.5,7,1.4,10.1
	c-0.6,0.6-1.3,1.2-1.9,1.8c-1.8,1.5-3.7,2.8-5.9,4.1c-3.8,2.3-6.9,3.4-9.3,3.4c-5.1,0-9.1-1.5-12.2-4.6c-2.2-2.2-2.6-5.3-1.3-9.5
	c2-6.6,3.9-12.8,5.6-18.6c1.7-5.8,3.3-11.3,4.7-16.3c0.5-1.1,1.3-1.7,2.3-1.7c9.1,0,13.4,0.1,12.9,0.2c1.3-0.1,2.1-0.7,2.5-1.7
	c1.1-2.5,1.6-4.7,1.3-6.5c-0.3-1.5-0.8-2.3-1.5-2.5c-2.2-0.1-4.2-0.2-6.1-0.3c-1.9-0.1-3.6-0.1-5.1-0.1c-1.3-0.4-1.8-1.1-1.5-2.3
	c1.8-5.8,3.5-11.5,5.3-17c1.8-5.5,3.5-10.9,5.3-16.2c0.5-3.2-0.2-5.1-2.1-5.7c-4.8-1.3-9.6-1.3-14.2,0c-2.2,0.6-3.5,1.6-4,2.8
	c-2,6.6-3.9,12.8-5.7,18.7c-1.8,5.9-3.4,11.6-4.9,17c-0.9,1.3-1.6,1.9-2.3,1.9c-0.3,0-0.6,0-1.1,0c-0.4,0-1-0.1-1.9-0.2h-3
	c-1.8,0-3.1,0.6-4,1.9c-0.5,1.4-0.9,2.6-1.2,3.6c-0.3,1-0.6,1.9-0.9,2.7c-0.6,1.5-0.4,2.4,0.8,2.7c1.5,0.1,2.9,0.2,4.1,0.3
	c1.2,0.1,2.3,0.1,3.3,0.1c1.3,0.4,1.8,1,1.7,1.9c-0.1,0.3-0.6,1.8-1.3,4.6c-0.8,2.8-1.9,6.8-3.4,12.2c-3,10.3-4.7,17-4.9,20.1
	c-0.1,0.1-0.1,0.1-0.2,0.2c-2.4,3.4-5.9,6.4-10.4,8.9c-3.8,2.2-6.9,3.3-9.3,3.4c-5.3,0.3-8.5,0-9.5-0.7c-1-0.7-1.1-1.5-0.2-2.4
	c1.1-1.1,2.7-3.4,4.6-6.8c1.3-2.4,2.2-4.7,2.8-6.7c0.6-2.1,0.9-4,1-5.8c0.3-6.6-1.2-13-4.4-19.2c-1.3-2.5-2.5-4.7-3.6-6.5
	c-1.1-1.8-2.3-3.2-3.6-4.2c-0.6-0.5-0.6-1.6,0-3.4c0.3-0.5,0.6-1.3,1.1-2.4c0.5-1.1,1.2-2.5,2.1-4.3c1.4-2.7,2.2-4.8,2.5-6.5
	c0.1-4.7-2.9-7.2-9.1-7.4c-3.2-0.1-6.6,1-10.3,3.2c-3.4,2-5.4,4.6-6.1,7.8c-0.1,0.6-0.2,1.2-0.3,1.8c-0.1,0.6-0.1,1.1-0.1,1.6
	c0,1.6,0.3,3.3,1,4.8c0.7,1.6,1,2.8,0.9,3.7c-1.1,3.4-4.7,10.9-12.7,20.7c-8.2,10-37.6,36.1-46.4,42.9c-13,10-19.3,13.9-24.7,15.2
	c-8.6,2.1-18.3,3.5-19-6.5c-0.3-4.6-0.9-9.8,6.1-21c8-13,15.6-22.7,22.8-29.1c1.6-1.5,3.3-2.2,4.9-1.9c4.2,0.9,7.7,1,10.5,0.2
	c9.2-2.4,13.9-6.4,13.9-12c0-5.6-3.6-8.4-10.8-8.4c-2.5,0-5.1,0.6-7.7,1.7c-2.6,1.1-5.1,2.3-7.5,3.4c-1.3,0.6-2.3,0.6-2.9-0.1
	c-0.7-0.7-1-1.9-1-3.5c0-6.7,2.7-14.7,8.2-23.9c4.7-8,9.9-14.6,15.6-20c6.6-6.2,12.5-9.2,17.7-9.1c2.2,0,4,0.3,5.5,0.9
	c1.5,0.6,2.8,1.2,3.8,1.8c1,0.6,1.8,1.2,2.4,1.7c0.6,0.5,0.9,0.8,1,0.8c1.1,0,2.2-0.8,3.3-2.3c1.1-1.5,1.5-3,1.4-4.6
	c-0.3-4.2-2.7-7.4-7.4-9.7c-2.5-1.3-16.4-2.9-21.2-2.9c-9,0-17.6,2.5-25.8,7.6c-11,7.1-20.4,18-28.1,32.9
	c-3.5,6.7-5.3,12.9-5.3,18.4c0,4.6,1.2,8.8,3.6,12.7c2.5,4.1,3.8,6.1,3.8,6.3c0,0.6-0.7,1.5-2.1,2.5c-5.6,3.7-11.4,8.7-17.5,15.2
	c-8.7,9.5-15.4,19.5-20,30c-3.3,7.6-4.9,14.2-4.9,20c0,11.5,6.1,19.1,18.2,22.6c2.2,0.6,5.7,1.3,10,1.9c9.4,1.2,26.1-3.3,36.2-10.2
	c7.2-4.8,42-34.8,45.8-37.8c0.5-0.5,1.1-0.4,1.9,0.2c5.2,5.3,12.4,7.7,21.7,7.2c4.4-0.3,7.8-0.6,10.1-1.1c0.1-0.1,1.7-0.8,4.8-1.9
	c0.9-0.3,1.6-0.2,2.3,0.2c1.6,1.1,5.2,1.9,10.6,2.3c4.7,0.3,8.9,0.1,12.5-0.6c7.1-1.1,13.3-4.4,18.6-9.7c0.2-0.2,0.4-0.6,0.6-1
	c1.4,3.2,3.6,5.8,6.8,7.8c4.1,2.5,9.8,3.8,17.3,3.8c2.9,0,6.1-0.3,9.7-1c7.1-1.1,13.3-4.4,18.6-9.7c0.2-0.2,0.3-0.4,0.4-0.6
	c1.3,1.8,2.9,3.5,4.7,5c6,4.8,16.2,7.2,30.8,7.2c7,0,13.2-0.6,18.8-1.7c6.6-1.2,12.5-4.2,17.5-8.9c1.2,3.1,3.3,5.5,6.4,7.2
	c3.8,1.8,8.5,2.7,14.2,2.7c3.5,0,7.3-0.4,11.4-1.1c6.6-1.1,12.5-4,17.5-8.7c1.2,3.1,3.3,5.5,6.4,7.2c3.8,1.8,8.5,2.7,14.2,2.7
	c3.5,0,7.3-0.4,11.4-1.1c5.8-0.9,11.1-3.3,15.7-7.1c0.6,1,1.3,2,2.2,2.9c3.4,4.2,8.2,6.3,14.4,6.3c6.5,0,13.2-3.2,20.3-9.5
	c4.9-4.4,8.4-8.5,10.3-12.3c0.3-0.5,0.6-1,1-1.3c0.4-0.4,0.8-0.5,1-0.4c0.1,0.3,0.1,0.6,0,1.1c-1,3.8-1.5,6.6-1.5,8.4
	c0,3.8,1.6,6.9,4.8,9.2c3.2,2.3,9.3,3.5,18.1,3.5c1.8,0,3.5-0.1,5.1-0.2c1.6-0.1,3.2-0.3,4.8-0.6c7.1-1.1,13.3-4.4,18.6-9.7
	c0.6-0.6,1.1-2,1.3-4.2c0.3-2.8-0.1-5.3-1-7.4C530.1,122.2,529.6,122,528.9,122.8z M164.3,119c-2.4,7.7-6.6,12.6-12.7,14.6
	c-2.4,0.8-3.7,0.6-4-0.4c-0.8-3.3-2.2-5.4-4.4-6.5c-1.5-0.5-2.3-1.1-2.3-1.9c0-0.4,0.3-1,0.9-1.9c1.6-1.9,4.9-5.9,9.7-12
	c5.4-7.2,8.4-11.4,8.9-12.5c0.4-0.9,0.9-1.3,1.5-1.3c0.6-0.3,1.1,0.1,1.5,1c1.4,3,2.1,6.9,2.1,11.6
	C165.7,113.2,165.2,116.3,164.3,119z M275.5,115.7c0-5.7,2-12.8,6.1-21.3c1.8-3.8,4.2-6.9,7.3-9.2c3.1-2.3,5.9-3.5,8.5-3.5
	c3.7,0,5.5,2.2,5.5,6.5c0,3-1.4,6.9-4.2,11.6c-4.4,7.6-10.9,14.1-19.4,19.4C276.8,120.9,275.5,119.8,275.5,115.7z M488.9,88.8
	c-6,12.8-11.8,22.7-17.7,29.8c-2.2,2.5-3.9,4.6-5.2,6.2c-1.3,1.6-2.3,2.7-2.9,3.3c-3.3,3.3-6.1,4.9-8.6,4.9c-4.6,0-6.8-3-6.8-8.9
	c0-6.2,2.9-13.8,8.6-22.8c3.2-4.8,7.3-8.9,12.5-12.3c5.4-3.4,10.1-5,13.9-4.8c4.3,0.1,6.5,1.3,6.5,3.4C489,88.1,489,88.5,488.9,88.8
	z M852.9,130.8c-0.3,2.2-0.7,3.5-1.3,4.2c-5.3,5.3-11.5,8.6-18.6,9.7c-1.6,0.3-3.3,0.5-4.8,0.7c-1.6,0.2-3.3,0.3-5,0.3
	c-8.4,0-14.5-1.3-18.4-4c-2.5-1.8-3.8-4.6-3.8-8.5c0-2,0.4-4.9,1.1-8.7c0.1-0.5,0.2-1,0.2-1.5c0-0.4-0.1-0.4-0.4-0.2
	c-0.1,0.1-0.3,0.3-0.6,0.6c-0.3,0.3-0.5,0.6-0.8,1.1c-9.9,14.2-19.9,21.3-30,21.3c-2.5,0-5-0.4-7.4-1.1c-3.8-1.4-6.4-3.8-7.6-7.3
	c-0.2,0.2-0.4,0.4-0.6,0.6c-1,0.8-1.9,1.6-2.9,2.2c-2.8,1.9-5.9,3.3-9.4,4.1c-3.5,0.8-7,1.4-10.6,1.8s-7,0.8-10.3,1.1
	c-3.2,0.4-5.9,1.1-8.1,2.3c-2.3,1-3.8,2.5-4.6,4.6c-2.3,6.8-7.2,14.1-14.8,21.7c-8.9,8.6-16.9,12.9-24.1,12.9c-4.1,0-7.6-1.3-10.6-4
	c-1.6-1.3-2.5-3-2.5-5.3c0-4.9,4.4-11.2,13.1-18.8c7.6-6.5,13.4-10.4,17.3-11.8c1.6-0.5,3.2-2.2,4.6-4.9c1.4-2.9,3-6.6,4.8-10.9
	c1.8-4.4,3.9-9.5,6.2-15.3c4.6-11.8,7.4-19.8,8.5-23.9c0.1-0.6,0.2-1.1,0.3-1.5c0.1-0.4,0.1-0.7,0.1-0.9c0-0.3-0.2-0.3-0.6-0.2
	l-1.1,1.5c-2.3,3.9-4.9,7.9-7.8,11.9c-2.9,4-6.1,8.1-9.7,12.3c-8.7,10.1-16.6,17.5-23.6,22c-7.9,4.9-15.6,7.1-23.2,7.4
	c-9.3,0.4-15.5-3.2-18.3-5.3c-3-2.7-5.7-7.3-5.7-11.8c0-0.6,0-1.3,0.1-2.1c0.1-0.8,0.2-1.5,0.3-2.3c0.9-4.4,5.4-17.6,13.7-39.5
	c8.5-22.7,13.4-35.8,13.6-36.8c0.5-1.5,5.8-12.5-2.6-13.1c-9,0-16.5,7.7-22.4,23.2c-2.2,5.7-3.2,10.7-3.2,15c0,3.5,0.8,6,2.3,7.2
	c1,0.8,1.5,1.6,1.5,2.7c0,2.7-1.9,4-5.7,4c-1.4,0-2.9-0.4-4.4-1.1c-2.5-1.4-4.8-3.9-6.7-7.4c-2.3-4.2-3.4-8.8-3.4-13.9
	c0-5.4,1.2-10.6,3.6-15.6c9.2-20.1,23.5-28.7,42.8-28.7c10.2,0,33.3,0.6,33.3,17c0,1,0,2.1-0.1,3.2c-0.1,1.1-0.2,2.2-0.3,3.2
	c-2.2,15.1-9.6,37.5-22.2,67.3c-1,2.4-1.5,4.4-1.5,5.9c0,2,0.8,3.2,2.3,3.6c3.9,1,8.7-0.6,14.2-4.8c9-6.5,12.4-12.3,26.9-36
	c13.9-22.9,23.2-41.5,27.7-55.7c0.9-2.7,2.8-4,5.9-4c0.6,0,1.5,0.1,2.5,0.2c1,0.1,2.2,0.3,3.4,0.6c5.2,1,7.8,2.9,7.8,5.7
	c0,1.1-0.2,2.3-0.6,3.6c-1.1,4.2-5.9,20-14.2,47.3c-4.6,14.7-8.3,26.5-11.1,35.5c-2.8,9-4.8,15.1-6,18.4c-0.6,2-0.9,3.2-0.8,3.6
	c0.1,0.8,0.8,1.1,1.9,1.1c0.9,0,3.2-0.2,6.8-0.6c1.5-0.1,3.1-0.2,4.7-0.3c1.6-0.1,3.2-0.1,4.8-0.1c2.4,0,5.5-1.1,9.3-3.4
	c2.2-1.3,4.1-2.6,5.9-4.1c1.1-0.9,2.1-1.9,3-3c1.1-7.3,6.5-25.4,16.1-54.5c0.9-2.8,2.9-4.2,6.1-4.2c2.2,0,4.6,0.4,7.4,1.3
	c5.1,1.5,4.6,3.4,4.6,5.9c0,0.8-0.3,1.9-1,3.4c-0.8,1.8-1.8,4.4-3.1,7.8c-1.3,3.4-3,7.8-5,13.1c-4.8,12.4-6.6,18.4-7.6,21.3
	c-1.3,3.8-1.6,6.7-1.4,8.2c0.4,2.8,4.7,4.4,8.2,4.4c1.9,0,4.6-1.7,8-5.1c4.1-4.1,9.2-13.2,15.6-27.4c2.4-5.4,4.4-10.2,5.9-14.2
	c1.5-4,2.7-7.4,3.6-10.2c1.4-4.9,5.3-7.1,11.8-6.5c6,0.6,8.9,2.1,8.9,4.4c0,1.3-0.4,2.7-1.3,4.4c-0.9,1.6-3.4,8.6-7.4,20.9
	c-4.3,12.7-6.8,20.4-7.4,23.2c-1.1,5.6-0.9,9.1,0.6,10.6c2.4,2.4,6.8,3.6,13.1,3.6c2.4,0,5.5-1.1,9.3-3.4c2.2-1.3,4.1-2.6,5.9-4.1
	c1.8-1.5,3.3-3.1,4.6-4.8c0.6-0.8,1.1-0.6,1.5,0.6C852.8,125.5,853.1,128,852.9,130.8z"/>
<g>
	<path class="st3" d="M87.6,251.1H75.9l-3,13.6h-2.1l3.5-15.4V249l6.7-28.8h1.7l10.2,44.5h-2.1L87.6,251.1z M76.4,249h10.8
		l-5.4-23.2L76.4,249z"/>
	<path class="st3" d="M140,264.6h-2.1v-12.3c0-5.3-3-8.4-8.3-8.4h-5.9v20.8h-2v-44.5h9.3c7.1,0,9.6,3.7,9.6,11.8
		c0,4-0.8,6.9-2.4,8.8c-0.7,0.9-2.2,1.5-3.3,2c0.9,0.4,1.6,0.9,2.2,1.6c2,1.9,3,4.5,3,7.9V264.6z M123.6,241.7h5.9
		c5.9,0,8.9-2.9,8.9-9.8c0-6.9-1.7-9.7-7.6-9.7h-7.3V241.7z"/>
	<path class="st3" d="M169,220.1h19.4v2.1h-8.7v42.4h-2v-42.4H169V220.1z"/>
	<path class="st3" d="M219.6,264.7h-2v-44.5h2V264.7z"/>
	<path class="st3" d="M249.5,251.9h2v1c0,4.4,1.1,6.8,2.6,8.1c1.5,1.3,3.3,1.6,4.9,1.6c4.8,0,7.5-2,7.5-7.9c0-9.9-17-12.6-17-24.1
		c0-6.7,3.4-10.5,9.5-10.5c6.3,0,9.6,4.2,9.6,11.8v1.1h-2.1v-1.1c0-6.7-2.4-9.7-7.5-9.7c-4.8,0-7.5,2.4-7.5,8.2
		c0,10.6,17,12.7,17,24.1c0,6.6-3.4,10.1-9.6,10.1c-6.3,0-9.5-3.9-9.5-11.7V251.9z"/>
	<path class="st3" d="M295,220.1h19.4v2.1h-8.7v42.4h-2v-42.4H295V220.1z"/>
	<path class="st3" d="M401.4,255.6c1.3-3.4,1.3-7.1,1.3-10V245h2.1v0.7c0,3.4-0.2,8.1-2,12.1v0.1c-0.1,0-0.1,0-0.1,0.1l4,6.8h-2.4
		l-2.8-4.8c-2.2,3.2-5.6,4.8-10.1,4.8c-6.1,0-10-4.7-10-11c0-2.9,0.8-5.1,2-6.8c1.8-2.6,4.4-4.6,6.7-6.5c-4.7-7.8-7.2-20.3,1.9-20.3
		c9.8,0,7.7,15.9,0.9,20.8L401.4,255.6z M391.2,242.4c-1.7,1.3-4.5,3.4-6,5.7c-1.1,1.5-1.7,3.2-1.7,5.7c0,2.2,0.6,4.5,1.9,6.1
		c1.3,1.6,3.3,2.8,6,2.8c4.1,0,7.1-1.6,8.9-4.7L391.2,242.4z M393.2,237.8c4-5.2,5.7-15.6-1.2-15.6c-7.4,0-2.3,14.2-0.3,17
		C391.8,239.2,392.7,238.5,393.2,237.8z"/>
	<path class="st3" d="M474.2,264.7v-44.5h7.6c7.1,0,10.3,4.1,10.3,12v20.5c0,7.9-3.2,12-10.3,12H474.2z M476.2,222.2v40.4h5.5
		c5.7,0,8.2-3.1,8.2-10v-20.5c0-6.9-2.4-10-8.2-10H476.2z"/>
	<path class="st3" d="M537.9,220.2v2H524v19.1h11.9v2H524v19.2h13.9v2h-16v-44.5H537.9z"/>
	<path class="st3" d="M564.7,251.9h2v1c0,4.4,1.1,6.8,2.6,8.1c1.5,1.3,3.3,1.6,4.9,1.6c4.8,0,7.5-2,7.5-7.9c0-9.9-17-12.6-17-24.1
		c0-6.7,3.4-10.5,9.5-10.5c6.3,0,9.6,4.2,9.6,11.8v1.1h-2.1v-1.1c0-6.7-2.4-9.7-7.5-9.7c-4.8,0-7.5,2.4-7.5,8.2
		c0,10.6,17,12.7,17,24.1c0,6.6-3.4,10.1-9.6,10.1c-6.3,0-9.5-3.9-9.5-11.7V251.9z"/>
	<path class="st3" d="M614.8,264.7h-2v-44.5h2V264.7z"/>
	<path class="st3" d="M644.6,231.9c0-7.7,3.2-11.7,9.5-11.7c6.3,0,9.5,4,9.5,11.7v1.1h-2.1v-1.1c0-4.3-1.1-6.7-2.5-8.1
		c-1.5-1.3-3.3-1.6-4.9-1.6s-3.4,0.3-4.9,1.6c-1.5,1.3-2.6,3.8-2.6,8.1v21.1c0,6.6,2.4,9.7,7.5,9.7c4.9,0,7.4-3.1,7.4-9.7v-5.8h-9.6
		V245h11.7v7.9c0,7.7-3.2,11.7-9.5,11.7c-6.3,0-9.5-4.2-9.5-11.7V231.9z"/>
	<path class="st3" d="M710.1,264.7l-15.4-38.1v38.1h-2.1v-44.5h1.8l15.3,38.1v-38.1h2.1v44.5H710.1z"/>
	<path class="st3" d="M757.3,220.2v2h-13.9v19.1h11.9v2h-11.9v19.2h13.9v2h-16v-44.5H757.3z"/>
	<path class="st3" d="M804.7,264.6h-2.1v-12.3c0-5.3-3-8.4-8.3-8.4h-5.9v20.8h-2v-44.5h9.3c7.1,0,9.6,3.7,9.6,11.8
		c0,4-0.8,6.9-2.4,8.8c-0.7,0.9-2.2,1.5-3.3,2c0.9,0.4,1.6,0.9,2.2,1.6c2,1.9,3,4.5,3,7.9V264.6z M788.4,241.7h5.9
		c5.9,0,8.9-2.9,8.9-9.8c0-6.9-1.7-9.7-7.6-9.7h-7.3V241.7z"/>
</g>
</svg>
